<svg width="269" height="44" viewBox="0 0 269 44" fill="none" xmlns="http://www.w3.org/2000/svg">
<path d="M31.2906 25.1201L19.1301 37.2328L25.2809 43.3171L45.6377 23.162C50.5707 17.8169 51.8308 13.1893 49.1787 7.38474L37.4837 19.0079L34.3942 15.9447L28.2857 22.071L31.2906 25.1201Z" fill="#F7F7F7"/>
<path d="M43.1266 1.32842L13.0216 31.3163L3.11825 21.4136C1.30477 19.1767 0.680076 17.6622 0.0428585 14.644C-0.591977 5.46854 5.9115 -0.210142 13.8539 0.0276365C17.5866 0.509155 19.4321 1.30149 22.1631 3.90201L15.9841 9.97231C12.9225 6.98265 8.6498 9.51832 8.71405 13.0774C8.74516 14.8006 10.0866 16.1407 11.337 17.327L13.0498 18.9519L28.0318 3.90201C32.8424 -0.30805 37.5401 -1.02138 43.1266 1.32842Z" fill="#F7F7F7"/>
<path d="M77.8157 14.5524H80.9279V28H77.8157V14.5524ZM71.7067 28H68.5945V14.5524H71.7067V28ZM78.0462 22.4865H71.4761V19.8546H78.0462V22.4865ZM86.7798 19.9699H93.2539V22.3904H86.7798V19.9699ZM87.0103 25.5026H94.3297V28H83.9174V14.5524H94.0799V17.0498H87.0103V25.5026ZM95.2959 25.176V23.082L101.635 14.5524H104.901L98.6962 23.082L97.1786 22.6402H107.764V25.176H95.2959ZM102.538 28V25.176L102.634 22.6402V20.1236H105.574V28H102.538ZM109.348 28V14.5524H115.169C116.373 14.5524 117.41 14.7509 118.281 15.1479C119.152 15.5322 119.824 16.0893 120.298 16.8193C120.772 17.5493 121.009 18.4202 121.009 19.432C121.009 20.4309 120.772 21.2954 120.298 22.0254C119.824 22.7426 119.152 23.2933 118.281 23.6776C117.41 24.0618 116.373 24.2539 115.169 24.2539H111.077L112.46 22.8899V28H109.348ZM117.897 28L114.535 23.1204H117.858L121.258 28H117.897ZM112.46 23.2357L111.077 21.7757H114.996C115.956 21.7757 116.673 21.5708 117.147 21.1609C117.621 20.7383 117.858 20.162 117.858 19.432C117.858 18.6891 117.621 18.1128 117.147 17.703C116.673 17.2932 115.956 17.0882 114.996 17.0882H111.077L112.46 15.609V23.2357ZM125.88 28V17.0882H121.577V14.5524H133.296V17.0882H128.992V28H125.88ZM134.778 28V14.5524H137.352L143.077 24.0426H141.713L147.342 14.5524H149.897L149.935 28H147.015L146.996 19.0285H147.534L143.039 26.5784H141.636L137.045 19.0285H137.698V28H134.778ZM155.796 19.9699H162.27V22.3904H155.796V19.9699ZM156.027 25.5026H163.346V28H152.934V14.5524H163.096V17.0498H156.027V25.5026ZM168.493 19.9699H174.967V22.3904H168.493V19.9699ZM168.723 25.5026H176.043V28H165.63V14.5524H175.793V17.0498H168.723V25.5026ZM181.112 28V17.0882H176.809V14.5524H188.528V17.0882H184.224V28H181.112ZM195.759 28.2305C193.851 28.2305 192.359 27.699 191.283 26.636C190.208 25.573 189.67 24.0554 189.67 22.0831V14.5524H192.782V21.9678C192.782 23.2485 193.044 24.1706 193.569 24.7342C194.095 25.2977 194.831 25.5794 195.779 25.5794C196.726 25.5794 197.463 25.2977 197.988 24.7342C198.513 24.1706 198.776 23.2485 198.776 21.9678V14.5524H201.849V22.0831C201.849 24.0554 201.311 25.573 200.236 26.636C199.16 27.699 197.668 28.2305 195.759 28.2305ZM204.733 28V14.5524H210.553C211.757 14.5524 212.795 14.7509 213.666 15.1479C214.537 15.5322 215.209 16.0893 215.683 16.8193C216.157 17.5493 216.394 18.4202 216.394 19.432C216.394 20.4309 216.157 21.2954 215.683 22.0254C215.209 22.7554 214.537 23.319 213.666 23.716C212.795 24.1002 211.757 24.2923 210.553 24.2923H206.462L207.845 22.8899V28H204.733ZM207.845 23.2357L206.462 21.7565H210.381C211.341 21.7565 212.058 21.5516 212.532 21.1417C213.006 20.7319 213.243 20.162 213.243 19.432C213.243 18.6891 213.006 18.1128 212.532 17.703C212.058 17.2932 211.341 17.0882 210.381 17.0882H206.462L207.845 15.609V23.2357ZM222.899 28V25.9829L228.086 21.0841C228.496 20.7127 228.797 20.3797 228.989 20.0851C229.181 19.7906 229.309 19.5216 229.373 19.2783C229.45 19.0349 229.488 18.8108 229.488 18.6059C229.488 18.068 229.302 17.6582 228.931 17.3764C228.572 17.0818 228.041 16.9346 227.337 16.9346C226.773 16.9346 226.248 17.0434 225.761 17.2611C225.287 17.4789 224.884 17.8183 224.551 18.2793L222.284 16.8193C222.796 16.0509 223.514 15.4425 224.436 14.9943C225.358 14.546 226.421 14.3219 227.625 14.3219C228.624 14.3219 229.495 14.4884 230.237 14.8214C230.993 15.1415 231.576 15.5962 231.986 16.1853C232.408 16.7745 232.62 17.4789 232.62 18.2985C232.62 18.734 232.562 19.1694 232.447 19.6049C232.344 20.0275 232.126 20.4758 231.793 20.9496C231.473 21.4235 230.999 21.955 230.372 22.5441L226.069 26.5976L225.473 25.4642H233.061V28H222.899ZM239.917 28.2305C238.815 28.2305 237.829 27.9616 236.958 27.4237C236.087 26.873 235.402 26.0789 234.903 25.0415C234.403 24.0041 234.153 22.749 234.153 21.2762C234.153 19.8034 234.403 18.5483 234.903 17.5109C235.402 16.4735 236.087 15.6858 236.958 15.1479C237.829 14.5972 238.815 14.3219 239.917 14.3219C241.031 14.3219 242.017 14.5972 242.875 15.1479C243.746 15.6858 244.431 16.4735 244.931 17.5109C245.43 18.5483 245.68 19.8034 245.68 21.2762C245.68 22.749 245.43 24.0041 244.931 25.0415C244.431 26.0789 243.746 26.873 242.875 27.4237C242.017 27.9616 241.031 28.2305 239.917 28.2305ZM239.917 25.5986C240.442 25.5986 240.896 25.4514 241.281 25.1568C241.678 24.8622 241.985 24.3948 242.203 23.7544C242.433 23.114 242.549 22.288 242.549 21.2762C242.549 20.2644 242.433 19.4384 242.203 18.798C241.985 18.1576 241.678 17.6902 241.281 17.3956C240.896 17.101 240.442 16.9538 239.917 16.9538C239.404 16.9538 238.95 17.101 238.553 17.3956C238.168 17.6902 237.861 18.1576 237.631 18.798C237.413 19.4384 237.304 20.2644 237.304 21.2762C237.304 22.288 237.413 23.114 237.631 23.7544C237.861 24.3948 238.168 24.8622 238.553 25.1568C238.95 25.4514 239.404 25.5986 239.917 25.5986ZM246.81 28V25.9829L251.997 21.0841C252.406 20.7127 252.707 20.3797 252.899 20.0851C253.092 19.7906 253.22 19.5216 253.284 19.2783C253.36 19.0349 253.399 18.8108 253.399 18.6059C253.399 18.068 253.213 17.6582 252.842 17.3764C252.483 17.0818 251.952 16.9346 251.247 16.9346C250.684 16.9346 250.159 17.0434 249.672 17.2611C249.198 17.4789 248.795 17.8183 248.462 18.2793L246.195 16.8193C246.707 16.0509 247.424 15.4425 248.346 14.9943C249.269 14.546 250.332 14.3219 251.535 14.3219C252.534 14.3219 253.405 14.4884 254.148 14.8214C254.904 15.1415 255.486 15.5962 255.896 16.1853C256.319 16.7745 256.53 17.4789 256.53 18.2985C256.53 18.734 256.473 19.1694 256.357 19.6049C256.255 20.0275 256.037 20.4758 255.704 20.9496C255.384 21.4235 254.91 21.955 254.283 22.5441L249.979 26.5976L249.384 25.4642H256.972V28H246.81ZM257.949 28V25.9829L263.136 21.0841C263.546 20.7127 263.847 20.3797 264.039 20.0851C264.231 19.7906 264.359 19.5216 264.423 19.2783C264.5 19.0349 264.538 18.8108 264.538 18.6059C264.538 18.068 264.352 17.6582 263.981 17.3764C263.622 17.0818 263.091 16.9346 262.387 16.9346C261.823 16.9346 261.298 17.0434 260.811 17.2611C260.337 17.4789 259.934 17.8183 259.601 18.2793L257.334 16.8193C257.846 16.0509 258.564 15.4425 259.486 14.9943C260.408 14.546 261.471 14.3219 262.675 14.3219C263.674 14.3219 264.545 14.4884 265.287 14.8214C266.043 15.1415 266.626 15.5962 267.036 16.1853C267.458 16.7745 267.67 17.4789 267.67 18.2985C267.67 18.734 267.612 19.1694 267.497 19.6049C267.394 20.0275 267.176 20.4758 266.843 20.9496C266.523 21.4235 266.049 21.955 265.422 22.5441L261.119 26.5976L260.523 25.4642H268.111V28H257.949Z" fill="#F7F7F7"/>
</svg>
